<svg xmlns="http://www.w3.org/2000/svg" viewBox="0 0 128 128" fill="none">
  <rect width="128" height="128" rx="28" fill="#F4F7F8"/>
  <rect x="30" y="26" width="68" height="30" rx="10" fill="#D7EEF6"/>
  <rect x="26" y="40" width="68" height="30" rx="10" fill="#2C2E35"/>
  <rect x="22" y="54" width="68" height="38" rx="12" fill="#4DB8DE"/>
  <rect x="32" y="64" width="28" height="6" rx="3" fill="#FFFFFF"/>
  <rect x="32" y="76" width="40" height="6" rx="3" fill="#D7EEF6"/>
  <path d="M84 66c0-6 4.5-9 9-9 3.5 0 6.5 2 8.5 5.5 2-3.5 5-5.5 8.5-5.5 4.5 0 9 3 9 9 0 11-17.5 20-17.5 20S84 77 84 66z" fill="#C9A66B"/>
  <circle cx="96" cy="38" r="12" fill="#2C2E35"/>
  <path d="M90 31l2.5-4.5h3l2.5 4.5" fill="#C9A66B"/>
  <path d="M98 31l2.5-4.5h3l2.5 4.5" fill="#C9A66B"/>
  <circle cx="93" cy="38" r="2" fill="#4DB8DE"/>
  <circle cx="99" cy="38" r="2" fill="#4DB8DE"/>
</svg>
