<svg xmlns="http://www.w3.org/2000/svg" viewBox="0 0 128 128" fill="none">
  <rect width="128" height="128" rx="28" fill="#0A0A1A"/>
  <circle cx="114" cy="114" r="24" fill="#3A86FF"/>
  <rect x="24" y="18" width="74" height="34" rx="14" fill="#FB5607"/>
  <rect x="20" y="36" width="74" height="34" rx="14" fill="#06FFA5"/>
  <rect x="16" y="54" width="74" height="42" rx="16" fill="#FF006E"/>
  <rect x="26" y="64" width="34" height="8" rx="4" fill="#FFBE0B"/>
  <rect x="26" y="78" width="46" height="8" rx="4" fill="#FFFFFF"/>
  <path d="M80 62c0-8 5.5-11 11-11 4.5 0 8 3 10.5 7 2.5-4 6-7 10.5-7 5.5 0 11 3 11 11 0 14-21 24-21 24S80 76 80 62z" fill="#FFBE0B"/>
  <circle cx="102" cy="34" r="15" fill="#1A1A3A"/>
  <path d="M93 25l3.5-6h4l3.5 6" fill="#FB5607"/>
  <path d="M103 25l3.5-6h4l3.5 6" fill="#FB5607"/>
  <circle cx="97.5" cy="34" r="2.8" fill="#06FFA5"/>
  <circle cx="106.5" cy="34" r="2.8" fill="#06FFA5"/>
</svg>
