<svg xmlns="http://www.w3.org/2000/svg" viewBox="0 0 128 128" fill="none">
  <rect width="128" height="128" rx="28" fill="#F4F7F8"/>
  <path d="M76 20l30 30-54 54-12 5 5-12 54-54z" fill="#4DB8DE"/>
  <path d="M76 20l12 5-22 22-5-12L76 20z" fill="#C9A66B"/>
  <path d="M40 90l-4 10 10-4-6-6z" fill="#2C2E35"/>
  <rect x="60" y="44" width="28" height="6" rx="2" transform="rotate(45 74 47)" fill="#2C2E35"/>
  <circle cx="34" cy="38" r="7" fill="#D7EEF6"/>
  <circle cx="48" cy="26" r="4" fill="#4DB8DE"/>
  <circle cx="98" cy="90" r="5" fill="#C9A66B"/>
  <path d="M28 56l3.5-9 3.5 9 9 3.5-9 3.5-3.5 9-3.5-9-9-3.5 9-3.5z" fill="#C9A66B"/>
</svg>
