<svg xmlns="http://www.w3.org/2000/svg" viewBox="0 0 128 128" fill="none">
  <rect width="128" height="128" rx="28" fill="#F4F7F8"/>
  <path d="M64 18c20 8 36 12 40 14v34c0 22-16 38-40 48-24-10-40-26-40-48V32c4-2 20-6 40-14z" fill="#4DB8DE"/>
  <path d="M64 30c16 6 28 10 32 11v27c0 16-12 28-32 36-20-8-32-20-32-36V41c4-1 16-5 32-11z" fill="#2C2E35"/>
  <rect x="50" y="60" width="28" height="22" rx="6" fill="#D7EEF6"/>
  <path d="M56 60v-8a8 8 0 0 1 16 0v8" stroke="#C9A66B" stroke-width="5" stroke-linecap="round"/>
  <circle cx="64" cy="70" r="3.5" fill="#2C2E35"/>
</svg>
