<svg xmlns="http://www.w3.org/2000/svg" viewBox="0 0 128 128" fill="none">
  <rect width="128" height="128" rx="28" fill="#F4F7F8"/>
  <path d="M34 18h40l22 22v66a10 10 0 0 1-10 10H34a10 10 0 0 1-10-10V28a10 10 0 0 1 10-10z" fill="#4DB8DE"/>
  <path d="M74 18v18a4 4 0 0 0 4 4h18" fill="#2C2E35"/>
  <circle cx="44" cy="54" r="5" fill="#C9A66B"/>
  <rect x="56" y="50" width="36" height="8" rx="4" fill="#FFFFFF"/>
  <circle cx="44" cy="72" r="5" fill="#D7EEF6"/>
  <rect x="56" y="68" width="28" height="8" rx="4" fill="#2C2E35"/>
  <circle cx="44" cy="90" r="5" fill="#C9A66B"/>
  <rect x="56" y="86" width="32" height="8" rx="4" fill="#FFFFFF"/>
</svg>
