<svg xmlns="http://www.w3.org/2000/svg" viewBox="0 0 128 128" fill="none">
  <rect width="128" height="128" rx="28" fill="#0A0A1A"/>
  <circle cx="112" cy="16" r="20" fill="#3A86FF"/>
  <path d="M28 10h48l26 26v72a14 14 0 0 1-14 14H28a14 14 0 0 1-14-14V24a14 14 0 0 1 14-14z" fill="#FF006E"/>
  <path d="M76 10v22a4 4 0 0 0 4 4h22" fill="#FB5607"/>
  <circle cx="40" cy="50" r="7" fill="#FFBE0B"/>
  <rect x="54" y="44" width="42" height="12" rx="6" fill="#FFFFFF"/>
  <circle cx="40" cy="72" r="7" fill="#06FFA5"/>
  <rect x="54" y="66" width="34" height="12" rx="6" fill="#0A0A1A"/>
  <circle cx="40" cy="94" r="7" fill="#3A86FF"/>
  <rect x="54" y="88" width="38" height="12" rx="6" fill="#FFFFFF"/>
</svg>
